<svg width="595" height="364" viewBox="0 0 595 364" fill="none" xmlns="http://www.w3.org/2000/svg">
<path d="M502.732 182C425.638 198.444 370.407 283.45 370.407 330C370.407 260.427 395.951 182 502.732 182Z" fill="black"/>
<path d="M78.1406 182H502.732M502.732 182C425.638 198.444 370.407 283.45 370.407 330C370.407 260.427 395.951 182 502.732 182Z" stroke="black" stroke-width="5"/>
<path d="M502.732 182C425.638 165.556 370.407 80.5504 370.407 34C370.407 103.573 395.951 182 502.732 182Z" fill="black"/>
<path d="M78.1406 182H502.732M502.732 182C425.638 165.556 370.407 80.5504 370.407 34C370.407 103.573 395.951 182 502.732 182Z" stroke="black" stroke-width="5"/>
<path d="M482.345 182H66" stroke="black" stroke-width="10"/>
</svg>
