<svg width="328" height="132" viewBox="0 0 328 132" fill="none" xmlns="http://www.w3.org/2000/svg">
<path d="M171.2 40.36V41.96C169.547 42.1733 167.947 42.7067 166.4 43.56C164.853 44.4133 163.307 45.8267 161.76 47.8L146.32 67.56L148.08 63.64L167.28 90.52C168.187 91.8533 169.173 92.8933 170.24 93.64C171.307 94.3867 172.667 94.9733 174.32 95.4V97C173.04 96.8933 171.44 96.84 169.52 96.84C167.653 96.7867 166.053 96.76 164.72 96.76C163.813 96.76 162.693 96.7867 161.36 96.84C160.08 96.84 158.453 96.8933 156.48 97V95.4C158.293 95.2933 159.44 94.9733 159.92 94.44C160.4 93.9067 160.213 93.0267 159.36 91.8L147.68 74.2C146.613 72.5467 145.653 71.32 144.8 70.52C144 69.6667 143.147 69.1067 142.24 68.84C141.387 68.5733 140.293 68.4133 138.96 68.36V66.76C141.2 66.7067 143.067 66.28 144.56 65.48C146.107 64.6267 147.387 63.56 148.4 62.28L156.08 52.52C157.84 50.28 159.04 48.3867 159.68 46.84C160.32 45.2933 160.293 44.12 159.6 43.32C158.907 42.4667 157.44 42.0133 155.2 41.96V40.36C156.747 40.4133 158.32 40.4667 159.92 40.52C161.52 40.5733 163.013 40.6 164.4 40.6C167.333 40.6 169.6 40.52 171.2 40.36ZM145.76 40.36V41.96C143.947 42.0133 142.56 42.2267 141.6 42.6C140.693 42.92 140.08 43.56 139.76 44.52C139.44 45.4267 139.28 46.8667 139.28 48.84V88.52C139.28 90.44 139.44 91.88 139.76 92.84C140.08 93.8 140.693 94.44 141.6 94.76C142.56 95.08 143.947 95.2933 145.76 95.4V97C144.533 96.8933 142.987 96.84 141.12 96.84C139.307 96.7867 137.467 96.76 135.6 96.76C133.52 96.76 131.573 96.7867 129.76 96.84C127.947 96.84 126.48 96.8933 125.36 97V95.4C127.173 95.2933 128.533 95.08 129.44 94.76C130.4 94.44 131.04 93.8 131.36 92.84C131.68 91.88 131.84 90.44 131.84 88.52V48.84C131.84 46.8667 131.68 45.4267 131.36 44.52C131.04 43.56 130.4 42.92 129.44 42.6C128.533 42.2267 127.173 42.0133 125.36 41.96V40.36C126.48 40.4133 127.947 40.4667 129.76 40.52C131.573 40.5733 133.52 40.6 135.6 40.6C137.467 40.6 139.307 40.5733 141.12 40.52C142.987 40.4667 144.533 40.4133 145.76 40.36ZM172.822 112.04V110.52C175.222 110.467 177.222 109.88 178.822 108.76C180.475 107.64 181.702 105.773 182.502 103.16C183.355 100.6 183.782 97.16 183.782 92.84V48.84C183.782 46.8667 183.622 45.4267 183.302 44.52C182.982 43.56 182.342 42.92 181.382 42.6C180.475 42.2267 179.115 42.0133 177.302 41.96V40.36C178.422 40.4133 179.889 40.4667 181.702 40.52C183.515 40.5733 185.409 40.6 187.382 40.6C189.355 40.6 191.249 40.5733 193.062 40.52C194.929 40.4667 196.475 40.4133 197.702 40.36V41.96C195.889 42.0133 194.502 42.2267 193.542 42.6C192.635 42.92 192.022 43.56 191.702 44.52C191.382 45.4267 191.222 46.8667 191.222 48.84V78.12C191.222 80.3067 191.195 82.68 191.142 85.24C191.089 87.8 190.955 90.28 190.742 92.68C190.582 95.08 190.289 97.1867 189.862 99C188.955 102.733 187.035 105.827 184.102 108.28C181.222 110.787 177.462 112.04 172.822 112.04Z" fill="#FFFAF0"/>
</svg>
