<svg width="1280" height="832" viewBox="0 0 1280 832" fill="none" xmlns="http://www.w3.org/2000/svg">
<path d="M468.838 529L474.454 516.4H477.334L482.968 529H479.908L475.3 517.876H476.452L471.826 529H468.838ZM471.646 526.3L472.42 524.086H478.9L479.692 526.3H471.646ZM489.963 519.172C490.731 519.172 491.415 519.328 492.015 519.64C492.627 519.94 493.107 520.408 493.455 521.044C493.803 521.668 493.977 522.472 493.977 523.456V529H491.169V523.888C491.169 523.108 490.995 522.532 490.647 522.16C490.311 521.788 489.831 521.602 489.207 521.602C488.763 521.602 488.361 521.698 488.001 521.89C487.653 522.07 487.377 522.352 487.173 522.736C486.981 523.12 486.885 523.612 486.885 524.212V529H484.077V519.316H486.759V521.998L486.255 521.188C486.603 520.54 487.101 520.042 487.749 519.694C488.397 519.346 489.135 519.172 489.963 519.172ZM502.409 519.172C503.177 519.172 503.861 519.328 504.461 519.64C505.073 519.94 505.553 520.408 505.901 521.044C506.249 521.668 506.423 522.472 506.423 523.456V529H503.615V523.888C503.615 523.108 503.441 522.532 503.093 522.16C502.757 521.788 502.277 521.602 501.653 521.602C501.209 521.602 500.807 521.698 500.447 521.89C500.099 522.07 499.823 522.352 499.619 522.736C499.427 523.12 499.331 523.612 499.331 524.212V529H496.523V519.316H499.205V521.998L498.701 521.188C499.049 520.54 499.547 520.042 500.195 519.694C500.843 519.346 501.581 519.172 502.409 519.172ZM513.844 529.144C512.74 529.144 511.768 528.928 510.928 528.496C510.1 528.064 509.458 527.476 509.002 526.732C508.546 525.976 508.318 525.118 508.318 524.158C508.318 523.186 508.54 522.328 508.984 521.584C509.44 520.828 510.058 520.24 510.838 519.82C511.618 519.388 512.5 519.172 513.484 519.172C514.432 519.172 515.284 519.376 516.04 519.784C516.808 520.18 517.414 520.756 517.858 521.512C518.302 522.256 518.524 523.15 518.524 524.194C518.524 524.302 518.518 524.428 518.506 524.572C518.494 524.704 518.482 524.83 518.47 524.95H510.604V523.312H516.994L515.914 523.798C515.914 523.294 515.812 522.856 515.608 522.484C515.404 522.112 515.122 521.824 514.762 521.62C514.402 521.404 513.982 521.296 513.502 521.296C513.022 521.296 512.596 521.404 512.224 521.62C511.864 521.824 511.582 522.118 511.378 522.502C511.174 522.874 511.072 523.318 511.072 523.834V524.266C511.072 524.794 511.186 525.262 511.414 525.67C511.654 526.066 511.984 526.372 512.404 526.588C512.836 526.792 513.34 526.894 513.916 526.894C514.432 526.894 514.882 526.816 515.266 526.66C515.662 526.504 516.022 526.27 516.346 525.958L517.84 527.578C517.396 528.082 516.838 528.472 516.166 528.748C515.494 529.012 514.72 529.144 513.844 529.144ZM525.074 529.144C524.03 529.144 523.1 528.934 522.284 528.514C521.468 528.082 520.826 527.488 520.358 526.732C519.902 525.976 519.674 525.118 519.674 524.158C519.674 523.186 519.902 522.328 520.358 521.584C520.826 520.828 521.468 520.24 522.284 519.82C523.1 519.388 524.03 519.172 525.074 519.172C526.094 519.172 526.982 519.388 527.738 519.82C528.494 520.24 529.052 520.846 529.412 521.638L527.234 522.808C526.982 522.352 526.664 522.016 526.28 521.8C525.908 521.584 525.5 521.476 525.056 521.476C524.576 521.476 524.144 521.584 523.76 521.8C523.376 522.016 523.07 522.322 522.842 522.718C522.626 523.114 522.518 523.594 522.518 524.158C522.518 524.722 522.626 525.202 522.842 525.598C523.07 525.994 523.376 526.3 523.76 526.516C524.144 526.732 524.576 526.84 525.056 526.84C525.5 526.84 525.908 526.738 526.28 526.534C526.664 526.318 526.982 525.976 527.234 525.508L529.412 526.696C529.052 527.476 528.494 528.082 527.738 528.514C526.982 528.934 526.094 529.144 525.074 529.144ZM532.112 532.636C531.608 532.636 531.11 532.558 530.618 532.402C530.126 532.246 529.724 532.03 529.412 531.754L530.438 529.756C530.654 529.948 530.9 530.098 531.176 530.206C531.464 530.314 531.746 530.368 532.022 530.368C532.418 530.368 532.73 530.272 532.958 530.08C533.198 529.9 533.414 529.594 533.606 529.162L534.11 527.974L534.326 527.668L537.8 519.316H540.5L536.126 529.594C535.814 530.374 535.454 530.986 535.046 531.43C534.65 531.874 534.206 532.186 533.714 532.366C533.234 532.546 532.7 532.636 532.112 532.636ZM533.768 529.378L529.448 519.316H532.346L535.694 527.416L533.768 529.378Z" fill="black"/>
<path d="M578.494 417V404.4H584.65C586.234 404.4 587.422 404.7 588.214 405.3C589.018 405.9 589.42 406.692 589.42 407.676C589.42 408.336 589.258 408.912 588.934 409.404C588.61 409.884 588.166 410.256 587.602 410.52C587.038 410.784 586.39 410.916 585.658 410.916L586 410.178C586.792 410.178 587.494 410.31 588.106 410.574C588.718 410.826 589.192 411.204 589.528 411.708C589.876 412.212 590.05 412.83 590.05 413.562C590.05 414.642 589.624 415.488 588.772 416.1C587.92 416.7 586.666 417 585.01 417H578.494ZM581.392 414.804H584.794C585.55 414.804 586.12 414.684 586.504 414.444C586.9 414.192 587.098 413.796 587.098 413.256C587.098 412.728 586.9 412.338 586.504 412.086C586.12 411.822 585.55 411.69 584.794 411.69H581.176V409.566H584.29C584.998 409.566 585.538 409.446 585.91 409.206C586.294 408.954 586.486 408.576 586.486 408.072C586.486 407.58 586.294 407.214 585.91 406.974C585.538 406.722 584.998 406.596 584.29 406.596H581.392V414.804ZM596.668 417.144C595.636 417.144 594.718 416.928 593.914 416.496C593.122 416.064 592.492 415.476 592.024 414.732C591.568 413.976 591.34 413.118 591.34 412.158C591.34 411.186 591.568 410.328 592.024 409.584C592.492 408.828 593.122 408.24 593.914 407.82C594.718 407.388 595.636 407.172 596.668 407.172C597.688 407.172 598.6 407.388 599.404 407.82C600.208 408.24 600.838 408.822 601.294 409.566C601.75 410.31 601.978 411.174 601.978 412.158C601.978 413.118 601.75 413.976 601.294 414.732C600.838 415.476 600.208 416.064 599.404 416.496C598.6 416.928 597.688 417.144 596.668 417.144ZM596.668 414.84C597.136 414.84 597.556 414.732 597.928 414.516C598.3 414.3 598.594 413.994 598.81 413.598C599.026 413.19 599.134 412.71 599.134 412.158C599.134 411.594 599.026 411.114 598.81 410.718C598.594 410.322 598.3 410.016 597.928 409.8C597.556 409.584 597.136 409.476 596.668 409.476C596.2 409.476 595.78 409.584 595.408 409.8C595.036 410.016 594.736 410.322 594.508 410.718C594.292 411.114 594.184 411.594 594.184 412.158C594.184 412.71 594.292 413.19 594.508 413.598C594.736 413.994 595.036 414.3 595.408 414.516C595.78 414.732 596.2 414.84 596.668 414.84ZM609.741 407.172C610.509 407.172 611.193 407.328 611.793 407.64C612.405 407.94 612.885 408.408 613.233 409.044C613.581 409.668 613.755 410.472 613.755 411.456V417H610.947V411.888C610.947 411.108 610.773 410.532 610.425 410.16C610.089 409.788 609.609 409.602 608.985 409.602C608.541 409.602 608.139 409.698 607.779 409.89C607.431 410.07 607.155 410.352 606.951 410.736C606.759 411.12 606.663 411.612 606.663 412.212V417H603.855V407.316H606.537V409.998L606.033 409.188C606.381 408.54 606.879 408.042 607.527 407.694C608.175 407.346 608.913 407.172 609.741 407.172ZM622.186 407.172C622.954 407.172 623.638 407.328 624.238 407.64C624.85 407.94 625.33 408.408 625.678 409.044C626.026 409.668 626.2 410.472 626.2 411.456V417H623.392V411.888C623.392 411.108 623.218 410.532 622.87 410.16C622.534 409.788 622.054 409.602 621.43 409.602C620.986 409.602 620.584 409.698 620.224 409.89C619.876 410.07 619.6 410.352 619.396 410.736C619.204 411.12 619.108 411.612 619.108 412.212V417H616.3V407.316H618.982V409.998L618.478 409.188C618.826 408.54 619.324 408.042 619.972 407.694C620.62 407.346 621.358 407.172 622.186 407.172ZM633.622 417.144C632.518 417.144 631.546 416.928 630.706 416.496C629.878 416.064 629.236 415.476 628.78 414.732C628.324 413.976 628.096 413.118 628.096 412.158C628.096 411.186 628.318 410.328 628.762 409.584C629.218 408.828 629.836 408.24 630.616 407.82C631.396 407.388 632.278 407.172 633.262 407.172C634.21 407.172 635.062 407.376 635.818 407.784C636.586 408.18 637.192 408.756 637.636 409.512C638.08 410.256 638.302 411.15 638.302 412.194C638.302 412.302 638.296 412.428 638.284 412.572C638.272 412.704 638.26 412.83 638.248 412.95H630.382V411.312H636.772L635.692 411.798C635.692 411.294 635.59 410.856 635.386 410.484C635.182 410.112 634.9 409.824 634.54 409.62C634.18 409.404 633.76 409.296 633.28 409.296C632.8 409.296 632.374 409.404 632.002 409.62C631.642 409.824 631.36 410.118 631.156 410.502C630.952 410.874 630.85 411.318 630.85 411.834V412.266C630.85 412.794 630.964 413.262 631.192 413.67C631.432 414.066 631.762 414.372 632.182 414.588C632.614 414.792 633.118 414.894 633.694 414.894C634.21 414.894 634.66 414.816 635.044 414.66C635.44 414.504 635.8 414.27 636.124 413.958L637.618 415.578C637.174 416.082 636.616 416.472 635.944 416.748C635.272 417.012 634.498 417.144 633.622 417.144ZM642.623 417L638.555 407.316H641.453L644.837 415.65H643.397L646.907 407.316H649.607L645.521 417H642.623ZM650.753 417V407.316H653.561V417H650.753ZM652.157 405.966C651.641 405.966 651.221 405.816 650.897 405.516C650.573 405.216 650.411 404.844 650.411 404.4C650.411 403.956 650.573 403.584 650.897 403.284C651.221 402.984 651.641 402.834 652.157 402.834C652.673 402.834 653.093 402.978 653.417 403.266C653.741 403.542 653.903 403.902 653.903 404.346C653.903 404.814 653.741 405.204 653.417 405.516C653.105 405.816 652.685 405.966 652.157 405.966ZM656.167 417V403.644H658.975V417H656.167ZM661.581 417V403.644H664.389V417H661.581ZM671.801 417.144C670.697 417.144 669.725 416.928 668.885 416.496C668.057 416.064 667.415 415.476 666.959 414.732C666.503 413.976 666.275 413.118 666.275 412.158C666.275 411.186 666.497 410.328 666.941 409.584C667.397 408.828 668.015 408.24 668.795 407.82C669.575 407.388 670.457 407.172 671.441 407.172C672.389 407.172 673.241 407.376 673.997 407.784C674.765 408.18 675.371 408.756 675.815 409.512C676.259 410.256 676.481 411.15 676.481 412.194C676.481 412.302 676.475 412.428 676.463 412.572C676.451 412.704 676.439 412.83 676.427 412.95H668.561V411.312H674.951L673.871 411.798C673.871 411.294 673.769 410.856 673.565 410.484C673.361 410.112 673.079 409.824 672.719 409.62C672.359 409.404 671.939 409.296 671.459 409.296C670.979 409.296 670.553 409.404 670.181 409.62C669.821 409.824 669.539 410.118 669.335 410.502C669.131 410.874 669.029 411.318 669.029 411.834V412.266C669.029 412.794 669.143 413.262 669.371 413.67C669.611 414.066 669.941 414.372 670.361 414.588C670.793 414.792 671.297 414.894 671.873 414.894C672.389 414.894 672.839 414.816 673.223 414.66C673.619 414.504 673.979 414.27 674.303 413.958L675.797 415.578C675.353 416.082 674.795 416.472 674.123 416.748C673.451 417.012 672.677 417.144 671.801 417.144Z" fill="black"/>
<path d="M574.104 283V272.776H570.072V270.4H581.052V272.776H577.02V283H574.104ZM588.309 273.172C589.077 273.172 589.761 273.328 590.361 273.64C590.973 273.94 591.453 274.408 591.801 275.044C592.149 275.668 592.323 276.472 592.323 277.456V283H589.515V277.888C589.515 277.108 589.341 276.532 588.993 276.16C588.657 275.788 588.177 275.602 587.553 275.602C587.109 275.602 586.707 275.698 586.347 275.89C585.999 276.07 585.723 276.352 585.519 276.736C585.327 277.12 585.231 277.612 585.231 278.212V283H582.423V269.644H585.231V275.998L584.601 275.188C584.949 274.54 585.447 274.042 586.095 273.694C586.743 273.346 587.481 273.172 588.309 273.172ZM599.547 283.144C598.515 283.144 597.597 282.928 596.793 282.496C596.001 282.064 595.371 281.476 594.903 280.732C594.447 279.976 594.219 279.118 594.219 278.158C594.219 277.186 594.447 276.328 594.903 275.584C595.371 274.828 596.001 274.24 596.793 273.82C597.597 273.388 598.515 273.172 599.547 273.172C600.567 273.172 601.479 273.388 602.283 273.82C603.087 274.24 603.717 274.822 604.173 275.566C604.629 276.31 604.857 277.174 604.857 278.158C604.857 279.118 604.629 279.976 604.173 280.732C603.717 281.476 603.087 282.064 602.283 282.496C601.479 282.928 600.567 283.144 599.547 283.144ZM599.547 280.84C600.015 280.84 600.435 280.732 600.807 280.516C601.179 280.3 601.473 279.994 601.689 279.598C601.905 279.19 602.013 278.71 602.013 278.158C602.013 277.594 601.905 277.114 601.689 276.718C601.473 276.322 601.179 276.016 600.807 275.8C600.435 275.584 600.015 275.476 599.547 275.476C599.079 275.476 598.659 275.584 598.287 275.8C597.915 276.016 597.615 276.322 597.387 276.718C597.171 277.114 597.063 277.594 597.063 278.158C597.063 278.71 597.171 279.19 597.387 279.598C597.615 279.994 597.915 280.3 598.287 280.516C598.659 280.732 599.079 280.84 599.547 280.84ZM612.62 273.172C613.388 273.172 614.072 273.328 614.672 273.64C615.284 273.94 615.764 274.408 616.112 275.044C616.46 275.668 616.634 276.472 616.634 277.456V283H613.826V277.888C613.826 277.108 613.652 276.532 613.304 276.16C612.968 275.788 612.488 275.602 611.864 275.602C611.42 275.602 611.018 275.698 610.658 275.89C610.31 276.07 610.034 276.352 609.83 276.736C609.638 277.12 609.542 277.612 609.542 278.212V283H606.734V273.316H609.416V275.998L608.912 275.188C609.26 274.54 609.758 274.042 610.406 273.694C611.054 273.346 611.792 273.172 612.62 273.172ZM623.857 283.144C622.825 283.144 621.907 282.928 621.103 282.496C620.311 282.064 619.681 281.476 619.213 280.732C618.757 279.976 618.529 279.118 618.529 278.158C618.529 277.186 618.757 276.328 619.213 275.584C619.681 274.828 620.311 274.24 621.103 273.82C621.907 273.388 622.825 273.172 623.857 273.172C624.877 273.172 625.789 273.388 626.593 273.82C627.397 274.24 628.027 274.822 628.483 275.566C628.939 276.31 629.167 277.174 629.167 278.158C629.167 279.118 628.939 279.976 628.483 280.732C628.027 281.476 627.397 282.064 626.593 282.496C625.789 282.928 624.877 283.144 623.857 283.144ZM623.857 280.84C624.325 280.84 624.745 280.732 625.117 280.516C625.489 280.3 625.783 279.994 625.999 279.598C626.215 279.19 626.323 278.71 626.323 278.158C626.323 277.594 626.215 277.114 625.999 276.718C625.783 276.322 625.489 276.016 625.117 275.8C624.745 275.584 624.325 275.476 623.857 275.476C623.389 275.476 622.969 275.584 622.597 275.8C622.225 276.016 621.925 276.322 621.697 276.718C621.481 277.114 621.373 277.594 621.373 278.158C621.373 278.71 621.481 279.19 621.697 279.598C621.925 279.994 622.225 280.3 622.597 280.516C622.969 280.732 623.389 280.84 623.857 280.84ZM636.93 273.172C637.698 273.172 638.382 273.328 638.982 273.64C639.594 273.94 640.074 274.408 640.422 275.044C640.77 275.668 640.944 276.472 640.944 277.456V283H638.136V277.888C638.136 277.108 637.962 276.532 637.614 276.16C637.278 275.788 636.798 275.602 636.174 275.602C635.73 275.602 635.328 275.698 634.968 275.89C634.62 276.07 634.344 276.352 634.14 276.736C633.948 277.12 633.852 277.612 633.852 278.212V283H631.044V273.316H633.726V275.998L633.222 275.188C633.57 274.54 634.068 274.042 634.716 273.694C635.364 273.346 636.102 273.172 636.93 273.172ZM646.747 283.144C645.919 283.144 645.121 283.048 644.353 282.856C643.597 282.652 642.997 282.4 642.553 282.1L643.489 280.084C643.933 280.36 644.455 280.588 645.055 280.768C645.667 280.936 646.267 281.02 646.855 281.02C647.503 281.02 647.959 280.942 648.223 280.786C648.499 280.63 648.637 280.414 648.637 280.138C648.637 279.91 648.529 279.742 648.313 279.634C648.109 279.514 647.833 279.424 647.485 279.364C647.137 279.304 646.753 279.244 646.333 279.184C645.925 279.124 645.511 279.046 645.091 278.95C644.671 278.842 644.287 278.686 643.939 278.482C643.591 278.278 643.309 278.002 643.093 277.654C642.889 277.306 642.787 276.856 642.787 276.304C642.787 275.692 642.961 275.152 643.309 274.684C643.669 274.216 644.185 273.85 644.857 273.586C645.529 273.31 646.333 273.172 647.269 273.172C647.929 273.172 648.601 273.244 649.285 273.388C649.969 273.532 650.539 273.742 650.995 274.018L650.059 276.016C649.591 275.74 649.117 275.554 648.637 275.458C648.169 275.35 647.713 275.296 647.269 275.296C646.645 275.296 646.189 275.38 645.901 275.548C645.613 275.716 645.469 275.932 645.469 276.196C645.469 276.436 645.571 276.616 645.775 276.736C645.991 276.856 646.273 276.952 646.621 277.024C646.969 277.096 647.347 277.162 647.755 277.222C648.175 277.27 648.595 277.348 649.015 277.456C649.435 277.564 649.813 277.72 650.149 277.924C650.497 278.116 650.779 278.386 650.995 278.734C651.211 279.07 651.319 279.514 651.319 280.066C651.319 280.666 651.139 281.2 650.779 281.668C650.419 282.124 649.897 282.484 649.213 282.748C648.541 283.012 647.719 283.144 646.747 283.144ZM652.692 279.058V276.808H657.786V279.058H652.692ZM659.995 283V269.644H662.803V283H659.995ZM670.215 283.144C669.111 283.144 668.139 282.928 667.299 282.496C666.471 282.064 665.829 281.476 665.373 280.732C664.917 279.976 664.689 279.118 664.689 278.158C664.689 277.186 664.911 276.328 665.355 275.584C665.811 274.828 666.429 274.24 667.209 273.82C667.989 273.388 668.871 273.172 669.855 273.172C670.803 273.172 671.655 273.376 672.411 273.784C673.179 274.18 673.785 274.756 674.229 275.512C674.673 276.256 674.895 277.15 674.895 278.194C674.895 278.302 674.889 278.428 674.877 278.572C674.865 278.704 674.853 278.83 674.841 278.95H666.975V277.312H673.365L672.285 277.798C672.285 277.294 672.183 276.856 671.979 276.484C671.775 276.112 671.493 275.824 671.133 275.62C670.773 275.404 670.353 275.296 669.873 275.296C669.393 275.296 668.967 275.404 668.595 275.62C668.235 275.824 667.953 276.118 667.749 276.502C667.545 276.874 667.443 277.318 667.443 277.834V278.266C667.443 278.794 667.557 279.262 667.785 279.67C668.025 280.066 668.355 280.372 668.775 280.588C669.207 280.792 669.711 280.894 670.287 280.894C670.803 280.894 671.253 280.816 671.637 280.66C672.033 280.504 672.393 280.27 672.717 279.958L674.211 281.578C673.767 282.082 673.209 282.472 672.537 282.748C671.865 283.012 671.091 283.144 670.215 283.144ZM680.023 283.144C679.195 283.144 678.397 283.048 677.629 282.856C676.873 282.652 676.273 282.4 675.829 282.1L676.765 280.084C677.209 280.36 677.731 280.588 678.331 280.768C678.943 280.936 679.543 281.02 680.131 281.02C680.779 281.02 681.235 280.942 681.499 280.786C681.775 280.63 681.913 280.414 681.913 280.138C681.913 279.91 681.805 279.742 681.589 279.634C681.385 279.514 681.109 279.424 680.761 279.364C680.413 279.304 680.029 279.244 679.609 279.184C679.201 279.124 678.787 279.046 678.367 278.95C677.947 278.842 677.563 278.686 677.215 278.482C676.867 278.278 676.585 278.002 676.369 277.654C676.165 277.306 676.063 276.856 676.063 276.304C676.063 275.692 676.237 275.152 676.585 274.684C676.945 274.216 677.461 273.85 678.133 273.586C678.805 273.31 679.609 273.172 680.545 273.172C681.205 273.172 681.877 273.244 682.561 273.388C683.245 273.532 683.815 273.742 684.271 274.018L683.335 276.016C682.867 275.74 682.393 275.554 681.913 275.458C681.445 275.35 680.989 275.296 680.545 275.296C679.921 275.296 679.465 275.38 679.177 275.548C678.889 275.716 678.745 275.932 678.745 276.196C678.745 276.436 678.847 276.616 679.051 276.736C679.267 276.856 679.549 276.952 679.897 277.024C680.245 277.096 680.623 277.162 681.031 277.222C681.451 277.27 681.871 277.348 682.291 277.456C682.711 277.564 683.089 277.72 683.425 277.924C683.773 278.116 684.055 278.386 684.271 278.734C684.487 279.07 684.595 279.514 684.595 280.066C684.595 280.666 684.415 281.2 684.055 281.668C683.695 282.124 683.173 282.484 682.489 282.748C681.817 283.012 680.995 283.144 680.023 283.144ZM685.967 279.058V276.808H691.061V279.058H685.967ZM698.995 283.144C698.143 283.144 697.411 282.964 696.799 282.604C696.187 282.244 695.719 281.698 695.395 280.966C695.071 280.222 694.909 279.286 694.909 278.158C694.909 277.018 695.077 276.082 695.413 275.35C695.761 274.618 696.241 274.072 696.853 273.712C697.465 273.352 698.179 273.172 698.995 273.172C699.907 273.172 700.723 273.376 701.443 273.784C702.175 274.192 702.751 274.768 703.171 275.512C703.603 276.256 703.819 277.138 703.819 278.158C703.819 279.166 703.603 280.042 703.171 280.786C702.751 281.53 702.175 282.112 701.443 282.532C700.723 282.94 699.907 283.144 698.995 283.144ZM693.271 283V269.644H696.079V275.278L695.899 278.14L695.953 281.02V283H693.271ZM698.509 280.84C698.977 280.84 699.391 280.732 699.751 280.516C700.123 280.3 700.417 279.994 700.633 279.598C700.861 279.19 700.975 278.71 700.975 278.158C700.975 277.594 700.861 277.114 700.633 276.718C700.417 276.322 700.123 276.016 699.751 275.8C699.391 275.584 698.977 275.476 698.509 275.476C698.041 275.476 697.621 275.584 697.249 275.8C696.877 276.016 696.583 276.322 696.367 276.718C696.151 277.114 696.043 277.594 696.043 278.158C696.043 278.71 696.151 279.19 696.367 279.598C696.583 279.994 696.877 280.3 697.249 280.516C697.621 280.732 698.041 280.84 698.509 280.84ZM711.48 283V281.11L711.3 280.696V277.312C711.3 276.712 711.114 276.244 710.742 275.908C710.382 275.572 709.824 275.404 709.068 275.404C708.552 275.404 708.042 275.488 707.538 275.656C707.046 275.812 706.626 276.028 706.278 276.304L705.27 274.342C705.798 273.97 706.434 273.682 707.178 273.478C707.922 273.274 708.678 273.172 709.446 273.172C710.922 273.172 712.068 273.52 712.884 274.216C713.7 274.912 714.108 275.998 714.108 277.474V283H711.48ZM708.528 283.144C707.772 283.144 707.124 283.018 706.584 282.766C706.044 282.502 705.63 282.148 705.342 281.704C705.054 281.26 704.91 280.762 704.91 280.21C704.91 279.634 705.048 279.13 705.324 278.698C705.612 278.266 706.062 277.93 706.674 277.69C707.286 277.438 708.084 277.312 709.068 277.312H711.642V278.95H709.374C708.714 278.95 708.258 279.058 708.006 279.274C707.766 279.49 707.646 279.76 707.646 280.084C707.646 280.444 707.784 280.732 708.06 280.948C708.348 281.152 708.738 281.254 709.23 281.254C709.698 281.254 710.118 281.146 710.49 280.93C710.862 280.702 711.132 280.372 711.3 279.94L711.732 281.236C711.528 281.86 711.156 282.334 710.616 282.658C710.076 282.982 709.38 283.144 708.528 283.144ZM716.65 283V273.316H719.458V283H716.65ZM718.054 271.966C717.538 271.966 717.118 271.816 716.794 271.516C716.47 271.216 716.308 270.844 716.308 270.4C716.308 269.956 716.47 269.584 716.794 269.284C717.118 268.984 717.538 268.834 718.054 268.834C718.57 268.834 718.99 268.978 719.314 269.266C719.638 269.542 719.8 269.902 719.8 270.346C719.8 270.814 719.638 271.204 719.314 271.516C719.002 271.816 718.582 271.966 718.054 271.966ZM727.95 273.172C728.718 273.172 729.402 273.328 730.002 273.64C730.614 273.94 731.094 274.408 731.442 275.044C731.79 275.668 731.964 276.472 731.964 277.456V283H729.156V277.888C729.156 277.108 728.982 276.532 728.634 276.16C728.298 275.788 727.818 275.602 727.194 275.602C726.75 275.602 726.348 275.698 725.988 275.89C725.64 276.07 725.364 276.352 725.16 276.736C724.968 277.12 724.872 277.612 724.872 278.212V283H722.064V273.316H724.746V275.998L724.242 275.188C724.59 274.54 725.088 274.042 725.736 273.694C726.384 273.346 727.122 273.172 727.95 273.172ZM737.767 283.144C736.939 283.144 736.141 283.048 735.373 282.856C734.617 282.652 734.017 282.4 733.573 282.1L734.509 280.084C734.953 280.36 735.475 280.588 736.075 280.768C736.687 280.936 737.287 281.02 737.875 281.02C738.523 281.02 738.979 280.942 739.243 280.786C739.519 280.63 739.657 280.414 739.657 280.138C739.657 279.91 739.549 279.742 739.333 279.634C739.129 279.514 738.853 279.424 738.505 279.364C738.157 279.304 737.773 279.244 737.353 279.184C736.945 279.124 736.531 279.046 736.111 278.95C735.691 278.842 735.307 278.686 734.959 278.482C734.611 278.278 734.329 278.002 734.113 277.654C733.909 277.306 733.807 276.856 733.807 276.304C733.807 275.692 733.981 275.152 734.329 274.684C734.689 274.216 735.205 273.85 735.877 273.586C736.549 273.31 737.353 273.172 738.289 273.172C738.949 273.172 739.621 273.244 740.305 273.388C740.989 273.532 741.559 273.742 742.015 274.018L741.079 276.016C740.611 275.74 740.137 275.554 739.657 275.458C739.189 275.35 738.733 275.296 738.289 275.296C737.665 275.296 737.209 275.38 736.921 275.548C736.633 275.716 736.489 275.932 736.489 276.196C736.489 276.436 736.591 276.616 736.795 276.736C737.011 276.856 737.293 276.952 737.641 277.024C737.989 277.096 738.367 277.162 738.775 277.222C739.195 277.27 739.615 277.348 740.035 277.456C740.455 277.564 740.833 277.72 741.169 277.924C741.517 278.116 741.799 278.386 742.015 278.734C742.231 279.07 742.339 279.514 742.339 280.066C742.339 280.666 742.159 281.2 741.799 281.668C741.439 282.124 740.917 282.484 740.233 282.748C739.561 283.012 738.739 283.144 737.767 283.144Z" fill="black"/>
<path d="M391.5 551.5V551.463L391.498 551.425C391.231 546.057 389.082 541.629 386.403 538.415C383.757 535.239 380.488 533.127 377.825 532.536C377.475 532.458 377.104 532.22 376.857 531.195C376.599 530.126 376.59 528.555 376.804 526.533C377.121 523.544 377.874 519.961 378.657 516.234C378.93 514.932 379.207 513.612 379.471 512.294C380.042 509.436 379.491 505.87 378.498 502.095C377.493 498.277 375.969 494.01 374.411 489.68L374.253 489.239C372.736 485.024 371.197 480.745 370.02 476.641C368.799 472.385 368 468.417 368 465C368 461.286 367.585 456.714 367.078 451.935C366.926 450.512 366.767 449.069 366.607 447.622C366.226 444.177 365.842 440.702 365.557 437.372C365.152 432.637 364.959 428.307 365.252 424.91C365.399 423.212 365.662 421.815 366.046 420.745C366.433 419.666 366.895 419.051 367.354 418.733C367.723 418.478 368.238 418.36 369.08 418.541C369.951 418.73 371.025 419.213 372.307 419.982C374.284 421.167 376.476 422.849 378.859 424.677C379.587 425.236 380.333 425.809 381.096 426.385C384.28 428.788 387.733 431.229 391.107 432.601C394.5 433.979 398.117 434.391 401.332 432.248C404.258 430.298 406.972 426.526 409.648 422.33C410.703 420.675 411.756 418.949 412.829 417.188C414.565 414.341 416.356 411.404 418.304 408.529C424.642 399.18 431.796 391.855 441.323 392.989C452.074 394.269 469.158 392.098 485.012 389.29C499.92 386.648 513.945 383.403 521 381.771C521.479 381.66 521.925 381.557 522.337 381.462C524.221 381.027 526.594 379.825 529.214 378.17C531.871 376.492 534.909 374.265 538.15 371.662C544.636 366.453 552.009 359.676 558.887 352.609C565.762 345.546 572.179 338.156 576.732 331.718C579.007 328.502 580.846 325.483 582.04 322.832C583.206 320.246 583.88 317.752 583.471 315.706C583.117 313.934 582.428 312.538 581.319 311.588C580.204 310.632 578.854 310.288 577.502 310.251C576.172 310.214 574.738 310.47 573.321 310.816C572.24 311.08 571.093 311.416 569.954 311.75C569.6 311.854 569.247 311.958 568.896 312.059C565.843 312.94 562.906 313.661 560.291 313.383C557.827 313.122 555.574 311.966 553.813 308.775C552.115 305.698 552.214 300.583 553.933 294.203C555.624 287.924 558.783 280.795 562.677 273.995C566.569 267.199 571.159 260.798 575.675 255.961C577.932 253.543 580.148 251.541 582.225 250.078C584.317 248.605 586.182 247.74 587.747 247.48C591.159 246.911 593.705 247.539 595.79 248.775C597.926 250.041 599.673 252.001 601.359 254.27C601.95 255.066 602.554 255.931 603.168 256.81C604.218 258.314 605.296 259.858 606.388 261.165C608.175 263.303 610.299 265.209 613.118 265.951C614.008 266.185 615.022 266.141 616.048 265.969C617.095 265.793 618.278 265.46 619.566 265.012C622.141 264.117 625.283 262.705 628.842 260.955C633.597 258.617 639.202 255.621 645.326 252.347C648.358 250.726 651.516 249.037 654.762 247.327C674.486 236.933 697.512 225.692 716.215 222.985C735.025 220.262 757.609 221.374 775.483 224.601C784.424 226.215 792.107 228.345 797.517 230.746C800.227 231.949 802.289 233.186 803.648 234.403C805.023 235.633 805.5 236.673 805.5 237.5C805.5 240.084 804.741 242.649 803.584 245.327C802.798 247.145 801.873 248.923 800.912 250.771C800.437 251.685 799.952 252.617 799.471 253.579C796.633 259.255 794.124 265.614 796.577 272.974C797.814 276.686 800.389 279.888 803.391 282.77C805.941 285.218 808.901 287.527 811.763 289.758C812.266 290.151 812.767 290.542 813.261 290.93C816.612 293.56 819.699 296.099 821.954 298.778C824.197 301.444 825.5 304.112 825.5 307C825.5 313.325 823.052 318.527 819.641 323.459C817.93 325.934 815.999 328.311 814.025 330.732L813.885 330.903C811.969 333.253 810.016 335.647 808.271 338.14C804.677 343.274 800.346 351.688 797.985 360.877C795.63 370.041 795.173 380.229 799.675 388.704C802.077 393.224 806.448 395.619 811.392 396.861C816.325 398.1 822.042 398.25 827.472 398.125C829.753 398.072 831.956 397.973 834.047 397.879C837.042 397.744 839.809 397.619 842.251 397.656C844.299 397.687 845.965 397.834 847.203 398.149C848.477 398.473 849.001 398.9 849.198 399.244C849.446 399.679 849.605 400.621 849.419 402.285C849.242 403.876 848.785 405.854 848.122 408.127C846.964 412.1 845.238 416.776 843.479 421.542C843.225 422.229 842.971 422.918 842.717 423.607C840.724 429.027 838.782 434.462 837.788 438.806C837.293 440.969 837.005 442.975 837.108 444.627C837.209 446.24 837.719 447.924 839.256 448.802C843.604 451.287 847.704 449.251 851.18 446.786C852.337 445.966 853.529 445.02 854.696 444.094C855.292 443.621 855.88 443.154 856.455 442.711C858.21 441.358 859.915 440.161 861.634 439.359C862.811 438.81 864.38 439.024 866.442 440.397C868.481 441.754 870.689 444.055 872.861 446.96C877.195 452.76 881.117 460.605 883.066 466.941C884.161 470.5 886.708 474.132 889.777 477.643C892.865 481.177 896.605 484.725 900.228 488.098C900.705 488.542 901.18 488.983 901.652 489.421C904.782 492.328 907.746 495.081 910.124 497.619C911.489 499.076 912.628 500.428 913.479 501.666C914.338 502.917 914.845 503.968 915.036 504.825C915.894 508.686 914.214 512.725 911.306 517.18C909.999 519.183 908.499 521.19 906.964 523.244C906.813 523.446 906.661 523.649 906.509 523.853C904.832 526.099 903.136 528.401 901.72 530.718C900.194 533.215 899.743 535.375 899.797 537.446C899.834 538.817 900.11 540.216 900.366 541.511C900.468 542.025 900.566 542.523 900.645 542.997C900.939 544.756 901.073 546.608 900.553 548.885C900.029 551.18 898.817 554.003 896.271 557.64C893.91 561.013 888.952 564.098 882.293 566.814C875.7 569.504 867.698 571.732 859.551 573.535C843.26 577.142 826.584 579.008 819.889 579.504C815.866 579.802 812.426 582.603 809.42 586.452C806.383 590.338 803.56 595.588 800.831 601.359C798.867 605.514 796.922 610.003 794.97 614.511C794.209 616.268 793.446 618.028 792.681 619.772C789.941 626.017 787.155 632.08 784.198 637.256C781.231 642.447 778.271 646.611 775.516 649.456C772.697 652.368 770.355 653.625 768.625 653.625C767.14 653.625 765.505 652.653 764.107 649.243C762.708 645.835 761.747 640.392 761.499 632.453C761.232 623.909 757.032 617.592 751 612.766C745.014 607.978 737.16 604.598 729.377 601.836C725.877 600.594 722.359 599.467 719.008 598.393C718.623 598.269 718.241 598.147 717.861 598.025C714.157 596.836 710.697 595.708 707.665 594.538C704.623 593.365 702.094 592.179 700.225 590.902C698.345 589.617 697.304 588.355 696.942 587.088C695.081 580.573 696.572 576.367 698.614 572.809C699.137 571.896 699.699 571.025 700.268 570.148L700.391 569.959C700.915 569.155 701.447 568.336 701.927 567.515C702.964 565.745 703.849 563.818 703.997 561.6C704.263 557.604 703.477 552.377 699.588 548.28C695.681 544.164 688.932 541.49 677.93 542.002C674.709 542.151 671.659 543.997 668.796 546.784C665.914 549.589 663.053 553.512 660.204 558.18C654.505 567.517 648.687 580.12 642.755 593.453C641.615 596.014 640.471 598.602 639.322 601.202C634.472 612.175 629.536 623.345 624.486 633.463C618.227 646.004 611.874 656.762 605.42 663.459C604.097 664.832 602.818 666.169 601.577 667.467C596.566 672.706 592.182 677.289 588.08 680.897C582.952 685.406 578.491 688.176 574.092 688.829C569.795 689.466 565.256 688.12 559.853 683.663C554.413 679.177 548.231 671.642 540.756 660.181C533.259 648.685 527.88 642.093 523.393 638.813C521.113 637.146 518.986 636.274 516.868 636.1C514.753 635.926 512.812 636.463 510.936 637.324C509.072 638.181 507.228 639.353 505.225 640.625C499.206 644.45 491.755 649.183 478.02 649C469.003 648.88 463.642 646.019 460.046 642.014C456.366 637.915 454.401 632.49 452.481 626.889C452.394 626.634 452.307 626.378 452.219 626.122C450.434 620.898 448.588 615.494 445.155 611.67C441.402 607.488 435.927 605.337 427.297 606.514C419.428 607.587 413.363 605.682 408.63 602.059C403.853 598.402 400.329 592.914 397.762 586.679C392.62 574.191 391.5 559.167 391.5 551.5Z" stroke="black" stroke-width="3"/>
<circle cx="505.5" cy="542.5" r="8.5" fill="black"/>
<circle cx="627.5" cy="430.5" r="8.5" fill="black"/>
<circle cx="656.5" cy="250.5" r="8.5" fill="black"/>
</svg>
